<svg xmlns="http://www.w3.org/2000/svg" viewBox="0 0 100 24">
  <title>MF-Logo-white</title>
  <polygon points="4.663 4.663 19.32 4.663 19.32 19.32 23.983 19.32 23.983 0 4.663 0 4.663 4.663" fill="#fff"/>
  <polygon points="4.663 4.663 0 4.663 0 23.983 19.32 23.983 19.32 19.32 4.663 19.32 4.663 4.663" fill="#fff"/>
  <polygon points="35.228 5.154 31.66 0.009 29.633 0.009 29.633 10.347 31.66 10.347 31.66 3.568 34.603 7.86 35.823 7.86 38.75 3.568 38.75 10.347 40.778 10.347 40.778 0.009 38.795 0.009 35.228 5.154" fill="#fff"/>
  <rect x="45.982" y="0.009" width="2.028" height="10.338" fill="#fff"/>
  <path d="M63.355,9.321V7.005l-2.028.019v1.3H55.243V2.03h6.084V3.348l2.028,0V1.05A1.012,1.012,0,0,0,62.333.009H54.222A1.009,1.009,0,0,0,53.216,1.05V9.321a1.006,1.006,0,0,0,1.006,1.026h8.111A1.009,1.009,0,0,0,63.355,9.321Z" fill="#fff"/>
  <path d="M70.588,6.212H73.1l3.035,4.135H78.7L75.65,6.212h2.027A1.009,1.009,0,0,0,78.7,5.186V1.05A1.012,1.012,0,0,0,77.677.009H68.56V10.347h2.028Zm0-4.182h6.084V4.19H70.588Z" fill="#fff"/>
  <path d="M93.022.009H84.911A1.01,1.01,0,0,0,83.9,1.05V9.321a1.006,1.006,0,0,0,1.007,1.026h8.111a1.009,1.009,0,0,0,1.021-1.026V1.05A1.012,1.012,0,0,0,93.022.009ZM92.016,8.326H85.933V2.03h6.083Z" fill="#fff"/>
  <polygon points="29.632 23.908 31.659 23.908 31.659 19.758 37.743 19.758 37.743 17.721 31.659 17.721 31.659 15.591 39.77 15.591 39.77 13.57 29.632 13.57 29.632 23.908" fill="#fff"/>
  <path d="M51.712,13.57H43.6A1.01,1.01,0,0,0,42.6,14.612v8.27A1.006,1.006,0,0,0,43.6,23.908h8.111a1.01,1.01,0,0,0,1.022-1.026v-8.27A1.013,1.013,0,0,0,51.712,13.57Zm-1.006,8.317H44.622v-6.3h6.084Z" fill="#fff"/>
  <path d="M65.481,13.57H57.37a1.01,1.01,0,0,0-1.006,1.042v8.27a1.006,1.006,0,0,0,1.006,1.026h8.111A1.009,1.009,0,0,0,66.5,22.882V20.566l-2.028.019v1.3H58.391v-6.3h6.084v1.318l2.028,0v-2.3A1.013,1.013,0,0,0,65.481,13.57Z" fill="#fff"/>
  <path d="M78.244,21.887H72.161V13.57H70.134v9.312a1.006,1.006,0,0,0,1.006,1.026h8.111a1.01,1.01,0,0,0,1.022-1.026V13.57H78.244Z" fill="#fff"/>
  <path d="M93.02,13.57H84.909A1.01,1.01,0,0,0,83.9,14.612v4.1a1.02,1.02,0,0,0,1.006,1.043h7.1v2.129H85.93V20.814L83.9,20.8v2.087a1.006,1.006,0,0,0,1.006,1.026H93.02a1.009,1.009,0,0,0,1.022-1.026v-4.12a1.022,1.022,0,0,0-1.022-1.041H85.93v-2.13h6.084v1.088l2.028,0V14.612A1.013,1.013,0,0,0,93.02,13.57Z" fill="#fff"/>
  <path d="M98.867,1.466c0-.432-.215-.664-.737-.664h-.7v2.37h.284V2.129h.39l.484,1.043h.31L98.4,2.1A.575.575,0,0,0,98.867,1.466Zm-1.152.416V1.06h.374c.373,0,.494.1.494.406s-.127.416-.458.416Z" fill="#fff"/>
  <path d="M98.13.112a1.851,1.851,0,0,0-1.88,1.876A1.875,1.875,0,1,0,100,1.961,1.86,1.86,0,0,0,98.13.112Zm0,3.581a1.706,1.706,0,1,1,0-3.412,1.678,1.678,0,0,1,1.7,1.711A1.7,1.7,0,0,1,98.125,3.693Z" fill="#fff"/>
</svg>
