<svg xmlns="http://www.w3.org/2000/svg" viewBox="0 0 120 40" xmlns:xlink="http://www.w3.org/1999/xlink"><path d="M15.91,17.46c0,3.74-2.16,7.8-7.94,7.8-4.17,0-7.97-2.33-7.97-7.8,0-4.54,2.86-8.03,8.54-7.71,6.04,.34,7.37,5.02,7.37,7.71Zm-10.78-2.85c-.54,.83-.74,1.83-.74,2.82,0,2.3,1.13,4.38,3.57,4.38s3.52-1.91,3.52-4.18c0-1.6-.4-2.85-1.22-3.62-.91-.83-1.93-.86-2.55-.8-1.25,.08-1.99,.5-2.58,1.41Zm49.5-3.19c.43-.45,.71-.79,1.47-1.16,.68-.28,1.64-.51,2.69-.51,.88,0,1.87,.14,2.64,.57,1.56,.82,1.96,2.16,1.96,4.45v10.12h-4.34v-8.34c0-1.33-.03-1.81-.2-2.21-.34-.79-1.11-1.13-1.96-1.13-2.3,0-2.3,1.84-2.3,3.69v8h-4.37V10.11h4.4v1.3Zm-6.47,9.65c-.4,.84-1.69,4.19-7.37,4.19-4.4,0-7.49-2.69-7.49-7.54,0-3.57,1.76-7.97,7.6-7.97,.88,0,3.43-.11,5.33,1.93,1.93,2.07,2.04,4.96,2.1,6.64h-10.58c-.03,1.84,1.02,3.69,3.37,3.69s3.2-1.56,3.74-2.61l3.29,1.67Zm-4.34-5.47c-.09-.62-.2-1.45-.82-2.1-.54-.54-1.36-.82-2.13-.82-1.05,0-1.79,.51-2.21,.96-.6,.65-.74,1.33-.88,1.96h6.04Zm65.06-2.41h2.89v-3.07h-2.86v-3.11h-4.34v3.11h-.69l-1.99,3.07h2.67v7.03c0,1.42,.03,2.47,.62,3.35,.94,1.36,2.58,1.45,4.08,1.45,.79,0,1.36-.09,2.3-.23v-3.4l-1.56,.06c-1.16,0-1.16-.77-1.13-1.67v-6.57Zm-43.32-6.18h4.34v3.11h4.51l-1.99,3.07h-2.55v6.57c-.03,.91-.03,1.67,1.13,1.67l1.56-.06v3.4c-.94,.14-1.5,.23-2.3,.23-1.5,0-3.15-.09-4.08-1.45-.6-.88-.62-1.93-.62-3.35V7Zm50.23,6.18h-.54v-2.62h-.99v-.45h2.5v.45h-.97v2.62Zm4.2,0h-.53l.02-1.89,.03-.63-.15,.52-.63,2.01h-.48l-.62-2.01-.16-.51,.04,.62,.02,1.89h-.52v-3.07h.73l.77,2.42,.75-2.42h.73v3.07Zm-31.92,7.9l-.83,1.28c-.78,1.14-2.24,2.9-6.43,2.9s-7.35-2.69-7.35-7.54c0-3.57,1.76-7.97,7.6-7.97,.88,0,3.43-.11,5.33,1.93,1.93,2.07,2.04,4.96,2.1,6.64h-10.58c-.03,1.84,.88,3.69,3.24,3.69s3.07-1.56,3.61-2.61l3.32,1.69Zm-4.09-5.49c-.09-.62-.2-1.45-.82-2.1-.54-.54-1.36-.82-2.13-.82-1.05,0-1.79,.51-2.21,.96-.6,.65-.74,1.33-.88,1.96h6.04Zm18.96,9.3l-5.43-7.78,4.52-7h-4.97l-2.14,3.3-2.3-3.3h-4.97l4.88,7-5.03,7.78h4.97l2.64-4.08,2.85,4.08h4.97ZM21.92,11.42c.42-.63,1.76-1.67,3.88-1.67,3.63,0,6.18,2.75,6.18,7.69,0,3.03-1.11,7.83-6.37,7.83-1.89,0-3.36-1.05-3.73-1.67v6.2h-4.37V10.11h4.4v1.3Zm2.95,1.74c-.79,0-1.62,.32-2.24,1.11-.62,.77-.91,1.95-.91,3.25,0,1.74,.51,2.8,1.05,3.4,.5,.57,1.25,.89,1.96,.89,2.13,0,3.06-2.24,3.06-4.4,0-1.82-.54-3.75-2.33-4.17-.2-.05-.4-.08-.6-.08Z" fill="#fff"/></svg>